<svg xmlns="http://www.w3.org/2000/svg" xmlns:xlink="http://www.w3.org/1999/xlink" viewBox="0 0 360 360" xmlns:v="https://vecta.io/nano"><style><![CDATA[.f{fill:#fff}.g{fill:#00dfbf}.h{opacity:.5}.i{opacity:.3}.j{opacity:.1}.k{fill:#375a64}.l{fill:#02dddd}.m{opacity:.8}.n{fill:#1a2e35}.o{opacity:.7}.p{fill:#2b454e}.q{opacity:.15}.r{opacity:.9}.s{fill:#ffaaa8}.t{fill:#ff9090}]]></style><ellipse cx="178.6" cy="265" rx="176" ry="80.3" fill="#f5f5f5"/><path d="M129.8 48.7l-6.3 3.6c0-.3.1-.6.1-.8v-1.8c0-3.2-2.3-4.5-5.1-2.9-1.1.7-2.2 1.7-3 2.9-.5-4.1-3.6-5.6-7.5-3.3-4.2 2.4-7.6 8.3-7.6 13.1v2.7c0 1.3.2 2.3.6 3.1l-5.2 3c-1.6.9-2.8 3.1-2.8 4.9s1.3 2.5 2.8 1.6l34-19.6c1.6-.9 2.8-3.1 2.8-4.9s-1.3-2.5-2.8-1.6zm-85.3.7l3.9-3v-8.6c0-6.8 5.4-14.7 11.3-18.1h0c5.9-3.4 10.7-.6 10.7 6.2v1.2c1.3-2.1 3.1-3.9 5-5h0c4.3-2.5 7.7-.5 7.7 4.4v.6l5.4-3.1c2.8-1.6 5.1-.3 5.1 2.9s-2.3 7.2-5.1 8.8l-44 25.4c-2.8 1.6-5.1.3-5.1-2.9 0-3.3 2.3-7.2 5.1-8.8z" fill="#ececec"/><g fill="#e1e1e1"><path d="M344.6 273.4v-.6-.2c0-.1 0-.3-.1-.4v-.2c0-.1-.1-.3-.1-.4v-.1c-.1-.1-.1-.3-.2-.4v-.1c-.1-.1-.1-.3-.2-.4v-.1c-.1-.1-.2-.3-.3-.4s-.2-.3-.4-.4c-.5-.5-1-.9-1.7-1.2-.2-.1-.4-.2-.5-.2-.2-.1-.3-.1-.5-.2h-.1c-.2 0-.3-.1-.5-.1h-.1-.6c-1 0-1.9.3-2.7.7 0-.1 0-.1-.1-.2 0-.1-.1-.1-.1-.2-.1-.2-.2-.5-.3-.7 0-.1-.1-.1-.1-.2-.1-.2-.2-.5-.4-.7 0 0 0-.1-.1-.1a3.04 3.04 0 0 0-.5-.7c-.2-.2-.4-.5-.6-.7-.8-.8-1.7-1.5-2.8-2.1-.3-.1-.6-.3-.9-.4h-.1l-.9-.3h-.2c-.3-.1-.5-.1-.8-.1h-.2c-.3 0-.7-.1-1-.1-4.5 0-8.2 3.2-9.1 7.4-.8-.7-1.8-1.3-2.8-1.8-.4-.2-.8-.4-1.2-.5-.1 0-.1 0-.2-.1-.3-.1-.5-.2-.8-.2-.2-.1-.4-.1-.6-.2-.1 0-.3-.1-.4-.1-.3-.1-.6-.1-1-.1h-.2c-.4 0-.8-.1-1.1-.1-6.3 0-11.5 4.5-12.6 10.4-.2-.3-.3-.5-.5-.7 0-.1-.1-.1-.1-.2-.3-.4-.6-.7-.9-1.1l-.1-.1-1.1-1.1c-1.5-1.3-3.2-2.3-5.1-3-.1 0-.2-.1-.3-.1a12.59 12.59 0 0 0-1-.3c-.3-.1-.5-.1-.8-.2-.2 0-.4-.1-.5-.1-.4-.1-.8-.1-1.2-.2h-.3c-.5 0-.9-.1-1.4-.1-8.5 0-15.5 6.7-16 15.1-1.2-1.3-2.7-2.4-4.3-3.2h0c-.4-.2-.9-.4-1.4-.6-.1 0-.2-.1-.2-.1l-.9-.3c-.2-.1-.5-.1-.7-.2-.2 0-.3-.1-.5-.1-.4-.1-.7-.1-1.1-.2h-.3c-.4 0-.9-.1-1.3-.1-7.9 0-14.4 6.3-14.6 14.2v.4.4c0 .1 0 .2.1.3h-.1-.1c-.2 0-.3-.1-.5-.1h-.1-.6c-.9 0-1.8.2-2.6.6-.2-7.5-6.4-13.5-13.9-13.5-.4 0-.8 0-1.2.1h-.3c-.4 0-.7.1-1 .2-.2 0-.3.1-.5.1-.2.1-.4.1-.7.2s-.6.2-.8.3c-.1 0-.1.1-.2.1-.4.2-.9.3-1.3.5h0l-.6.3v-.4c-.2-8.6-7.3-15.6-16-15.6-.5 0-1 0-1.4.1h-.3c-.4 0-.8.1-1.2.2-.2 0-.4.1-.5.1-.3.1-.5.1-.8.2h-.1c-.8-6.7-6.6-11.9-13.5-11.9-.4 0-.8 0-1.2.1h-.3c-.3 0-.7.1-1 .2-.2 0-.3.1-.4.1-.2 0-.4.1-.7.2s-.6.2-.8.3c-.1 0-.1.1-.2.1-.4.2-.8.3-1.3.5-1.1.5-2.2 1.2-3.1 2-.3.3-.7.6-1 .9s-.6.7-.8 1l-.1.1c-.2.3-.5.7-.7 1l-.1.1a4.67 4.67 0 0 0-.5 1c0 .1-.1.1-.1.2-.1.3-.2.6-.4.8-.4 0-.8 0-1.1.1h-.2c-.3 0-.6.1-1 .1-.5-4.7-4.5-8.3-9.3-8.3-.3 0-.7 0-1 .1h-.2c-.3 0-.5.1-.8.1h-.2l-.9.3h-.1c-.3.1-.6.2-.9.4-1.1.5-2 1.2-2.8 2.1-.2.2-.4.4-.6.7-.2.2-.3.5-.5.7 0 0 0 .1-.1.1-.1.2-.3.5-.4.7 0 .1-.1.1-.1.2-.1.2-.2.4-.3.7 0 .1-.1.1-.1.2s-.1.1-.1.2c-.8-.4-1.7-.7-2.7-.7h-.6-.1c-.2 0-.3.1-.5.1h-.1c-.2 0-.3.1-.5.2s-.4.1-.5.2c-.5.2-.9.5-1.3.8l-.4.4c-.1.1-.2.3-.3.4s-.2.3-.3.4v.1a.76.76 0 0 0-.2.4v.1c-.1.1-.1.3-.2.4v.1c0 .1-.1.3-.1.4v.2c0 .1-.1.3-.1.4v.2.6.2.2c.1.8.6 1.6 1.6 2.2 1.4.8 3.4 1.1 5.2.9.3 0 .6-.1.9-.2.1 0 .2 0 .3-.1.2-.1.4-.1.6-.2.1 0 .2-.1.3-.1.3-.1.5-.2.8-.4a.76.76 0 0 1 .4-.2c.1-.1.2-.1.3-.2l.2-.2.1.1c1.9 1.1 4.5 1.6 7 1.6l-.3.6c0 .1-.1.1-.1.2-.1.3-.3.6-.4.9 0 .1-.1.2-.1.3l-.3.9c0 .1-.1.2-.1.3-.1.3-.1.6-.2 1 0 .1 0 .2-.1.3-.1.4-.1.9-.1 1.3v.4.4c.1 1.8 1.4 3.5 3.8 4.9 3.2 1.8 7.7 2.5 11.8 2l1.6-.3h.2c.5-.1 1.1-.2 1.6-.4.5-.1.9-.3 1.4-.5.1 0 .2-.1.3-.1.5-.2.9-.4 1.3-.6.3-.2.6-.4.8-.5l.1-.1c.2-.2.4-.3.6-.5.4-.4.8-.8 1.1-1.2.6-.8 1-1.7 1-2.6v-.4-.1c.9 0 1.7-.1 2.5-.2h.2c-.1.3-.2.5-.3.8 0 .1-.1.2-.1.4l-.3 1.2c0 .1 0 .2-.1.3-.1.4-.2.9-.2 1.3v.1c-.1.5-.1 1-.1 1.5v.4.4c.2 2.2 1.7 4.4 4.7 6.1 4 2.3 9.5 3.1 14.6 2.5h.1l1.7-.3c.2 0 .4-.1.6-.1s.4-.1.7-.2c.2-.1.5-.1.7-.2.2 0 .3-.1.5-.1.4-.1.8-.2 1.1-.4a.76.76 0 0 0 .4-.2c.2-.1.3-.1.5-.2v.1c-.1.3-.2.7-.3 1 0 .1-.1.2-.1.4-.1.3-.1.7-.2 1 0 .1-.1.3-.1.4-.1.5-.1 1-.1 1.4v.4.4c.2 1.9 1.5 3.8 4.1 5.3 3.9 2.3 9.6 2.9 14.4 1.9h.2c.6-.1 1.2-.3 1.7-.4.5-.2 1-.3 1.5-.5.1 0 .2-.1.4-.2.5-.2 1-.4 1.4-.7l.9-.6.1-.1c.1.3.2.6.4.9.1.2.3.4.5.5.1.1.2.1.3.2h.1c.1.1.2.2.4.2.2.1.5.3.8.4.1 0 .2.1.3.1.2.1.4.1.6.2.1 0 .2.1.3.1.3.1.6.1.9.2 1.8.2 3.8-.1 5.2-.9 1-.6 1.6-1.4 1.6-2.2v-.2-.2-.1a4.67 4.67 0 0 0 1 .5c.1.1.2.1.3.1.2.1.5.2.8.3.1 0 .2.1.4.1.3.1.7.2 1 .4.1 0 .3.1.5.1.2.1.4.1.7.2.2 0 .4.1.6.1s.4.1.5.1c.5.1 1 .2 1.5.2h.1c4.7.6 9.7-.2 13.3-2.3 2.7-1.6 4.1-3.5 4.3-5.6v-.4-.4c0-.5-.1-1-.1-1.5 0-.1 0-.3-.1-.4 0-.3-.1-.6-.2-.9 0 0 .1 0 .1.1.3.2.7.4 1 .7.3.2.7.4 1.1.6.1.1.2.1.4.2.3.1.5.2.8.3.1.1.3.1.4.2.4.1.7.3 1.1.4a.9.9 0 0 0 .5.1c.2.1.5.1.7.2s.4.1.7.2c.2 0 .4.1.6.1 5.6 1.1 12 .3 16.4-2.2 2.9-1.7 4.5-3.9 4.7-6.1v-.4-.4c0-.4 0-.9-.1-1.3 0 0 .1 0 .1.1.3.2.5.4.8.5.4.2.9.5 1.3.6.1 0 .2.1.3.1.4.2.9.4 1.4.5.5.2 1 .3 1.6.4h.2c4.5.9 9.8.3 13.4-1.8 2.4-1.4 3.6-3.1 3.8-4.9v-.4-.4c0-.5 0-.9-.1-1.3 0-.1 0-.2-.1-.4-.1-.3-.1-.6-.2-1 0-.1 0-.2-.1-.3.2.1.4.2.6.2l1.2.3h.2c3.3.7 7.1.2 9.7-1.3l.1-.1c.1.1.3.3.5.4.1.1.2.2.4.2.2.1.5.3.8.4.1 0 .2.1.3.1.2.1.4.1.6.2.1 0 .2.1.3.1.3.1.6.1.9.2 1.8.2 3.8-.1 5.2-.9 1-.6 1.6-1.4 1.6-2.2v-.2c0-.1-.7.6-.7.6z"/><ellipse cx="103.3" cy="290.8" rx="38.9" ry="22.5"/></g><use xlink:href="#B" class="g"/><use xlink:href="#B" class="i"/><path d="M330.2 240.8c.2 0 .3-.2.3-.3-.9-27.7 12.9-41.7 13-41.8s.1-.3 0-.5c-.1-.1-.3-.1-.5 0-.1.1-14.1 14.3-13.2 42.3.1.2.2.3.4.3z" class="f"/><use xlink:href="#C" class="g"/><use xlink:href="#C" class="j"/><path d="M335.5 243.5h0c.2 0 .3-.1.3-.3-.1-17.5 16.4-29.4 16.5-29.5s.2-.3.1-.5c-.1-.1-.3-.2-.5-.1s-16.9 12.2-16.8 30c.1.3.3.4.4.4z" class="f"/><use xlink:href="#D" class="g"/><use xlink:href="#D" class="q"/><path d="M29.3 235.8s-.1 0 0 0c-.2 0-.4-.2-.3-.4 2-14.2-3.8-29.8-10.2-36.1-.1-.1-.1-.3 0-.5.1-.1.3-.1.5 0 6.6 6.4 12.4 22.3 10.4 36.7-.1.2-.3.3-.4.3z" class="f"/><path d="M14.3 249.5c-.8.4-2.3-.5-2.9-.9-1-.7-1.8-1.6-2.4-2.7-.6-1.3-.8-2.6-.6-4 .1-.7.3-1.4.5-2.1l.6-2.1c.2-.7.4-1.4.3-2.1-.2-1.4-1.4-2.4-2.6-3.3-1.3-1-2.6-2.2-2.6-3.9 0-1.3.7-2.6 1.5-3.6s1.8-2 2.5-3.1c.5-.8 1-1.7.9-2.7-.1-.6-.3-1.1-.6-1.7-.6-1.1-1.4-2.1-1.8-3.3s-.4-2.7.6-3.6c.8-.7 1.9-.8 3-.7 1 .1 1.9.5 2.7 1 2.7 1.5 4.3 4.7 7.2 5.9 1.1.5 2.3.5 3.5.9 1.2.3 2.3.9 2.9 2 1.1 2.1-.9 4.7-.2 7 .7 2 2.6 2.8 3.7 4.6.5.8.6 1.7.5 2.6-.1 1.5-.4 2.7-1.1 4.4-.6 1.4-2.4 4-2.4 4 0-.2-13 7.3-13.2 7.4z" class="g"/><g class="f"><path d="M22.1 245.4c-.2 0-.3-.2-.3-.4.6-13.5-5.8-28.4-10.4-32.7-.1-.1-.1-.3 0-.5.1-.1.3-.1.5 0 4.7 4.4 11.2 19.5 10.6 33.2-.1.2-.2.4-.4.4z"/><path d="M20.1 229.5H20c-4.3-1.3-9.7-1.6-9.8-1.6-.2 0-.3-.2-.3-.4s.1-.3.4-.3c.1 0 5.5.2 10 1.6.2.1.3.2.2.4-.2.2-.3.3-.4.3z"/></g><path d="M11.5 147.3c0-13 9.1-28.8 20.4-35.3 5.6-3.3 10.7-3.6 14.4-1.4.1 0 2.5 1.5 2.5 1.5s3.4 5.3 3.4 11.7c0 13-9.1 28.8-20.4 35.3C26.3 162.3 20 162 20 162s-2.5-1.4-2.5-1.5c-3.7-2.1-6-6.7-6-13.2z" class="n"/><path d="M38.2 154.3l-25.7-14.9c-.7 2.7-1 5.3-1 7.9 0 6.5 2.3 11.1 6 13.2L20 162s6.3.3 11.9-2.9c2.2-1.3 4.3-2.9 6.3-4.8z" class="j"/><ellipse transform="matrix(.5 -.866 .866 .5 -101.4359 98.3398)" cx="34.4" cy="137" rx="28.8" ry="16.7" class="p"/><path d="M17.8 146.9c0-10.7 7.5-23.8 16.8-29.1 4.7-2.7 8.9-2.9 11.9-1.2l8.7 5s2.8 4.4 2.8 9.7c0 10.7-7.5 23.8-16.8 29.1-4.6 2.7-9.8 2.4-9.8 2.4l-8.7-5c-3-1.8-4.9-5.6-4.9-10.9z" class="l"/><path d="M22.7 130.4c-3 5.2-4.9 11.1-4.9 16.4 0 5.4 1.9 9.1 4.9 10.9l8.7 5s5.2.3 9.8-2.4 8.8-7.2 11.8-12.4l-30.3-17.5z" class="q"/><path d="M58.1 131.2c0 5.4-1.9 11.4-5 16.7l-30.4-17.5c3.1-5.3 7.3-10 12-12.7s8.9-2.9 11.9-1.2l8.7 5s2.8 4.5 2.8 9.7z" opacity=".4" class="f"/><path d="M18.2 142.7c.7-4.1 2.3-8.4 4.5-12.3L53.1 148c-2.3 3.9-5.2 7.4-8.4 10l-26.5-15.3z" opacity=".76" class="g"/><path d="M26.5 151.9c0-10.7 7.5-23.8 16.8-29.1 9.3-5.4 16.8-1 16.8 9.7s-7.5 23.8-16.8 29.1c-9.2 5.4-16.8 1-16.8-9.7z" class="l"/><path d="M29.6 155.2c-.1-.1-.1-.2-.1-.4V146c0-.3.2-.5.5-.7l.4-.2c.3-.2.5-.2.5.1v7.5l1.3-.8c.1-.1.2 0 .2 0 0 .1.1.3.1.5v.4c0 .2 0 .4-.1.6 0 .1-.1.2-.2.3l-2.4 1.4c0 .2-.1.2-.2.1zm3.4-2v-.3l1.4-9.6c0-.3.2-.5.6-.7l.6-.3c.3-.2.5-.2.6.1l1.4 8v.2c0 .2-.1.4-.4.5l-.5.3c-.3.2-.4.2-.5 0l-.2-1.6-1.4.8-.2 1.8c0 .2-.2.4-.4.5l-.5.3c-.4.2-.5.2-.5 0zm2.8-5l-.4-2.7c0-.3-.1-.6-.1-1h0c0 .4-.1.8-.1 1.1l-.4 3.2 1-.6zm3 1.2c-.4-.3-.6-.9-.6-1.8v-6.5c0-.3.2-.5.5-.7l.4-.2c.3-.2.5-.2.5.1v6.3c0 .4.1.6.2.8s.3.2.6 0c.2-.1.4-.4.6-.7.1-.3.2-.7.2-1v-6.3c0-.3.2-.5.5-.7l.4-.2c.3-.2.5-.2.5.1v6.5c0 .9-.2 1.8-.6 2.5s-.9 1.3-1.6 1.7-1.2.4-1.6.1zm4.9-2.6v-8.9c0-.3.2-.5.5-.7l.2-.1c.1-.1.2-.1.3-.1s.1.1.2.2l1.6 3.6c.1.2.2.5.3.9h0c0-.5-.1-.8-.1-1.1v-4.4c0-.3.2-.5.5-.7l.2-.1c.3-.2.5-.2.5.1v8.9c0 .3-.2.5-.5.7l-.2.1c-.1.1-.2.1-.3.1s-.1-.1-.2-.2l-1.7-3.7c-.1-.1-.1-.4-.2-.7v.1c0 .4.1.7.1.9v4.6c0 .3-.2.5-.5.7l-.2.1c-.3.1-.5 0-.5-.3zm6-4.1c-.4-.6-.6-1.7-.6-3.5 0-1.7.2-3 .6-4.1.4-1 1-1.8 1.9-2.3.3-.2.5-.3.8-.3.2 0 .3.1.3.4 0 .4 0 .7-.1 1s-.2.5-.3.5c-.2 0-.4.1-.6.2-.4.2-.6.6-.8 1.2s-.3 1.4-.3 2.5c0 1 .1 1.8.3 2.2s.5.5.9.3c.1-.1.2-.1.3-.2l.3-.3.1-.1c.1-.1.2 0 .3.2s.1.5.1.9c0 .1 0 .3-.1.4 0 .1-.1.2-.2.3l-.4.4c-.2.1-.3.3-.5.4-1 .5-1.6.5-2-.1zm4-1.6v-8.9c0-.3.2-.5.5-.7l.4-.2c.3-.2.5-.1.5.1v3.4l1.5-.9v-3.4c0-.3.2-.5.5-.7l.4-.2c.3-.2.5-.2.5.1v8.9c0 .3-.2.5-.5.7l-.4.2c-.3.2-.5.2-.5-.1v-3.6l-1.5.9v3.6c0 .3-.2.5-.5.7l-.4.2c-.4.2-.5.2-.5-.1z" fill="#fafafa"/><g class="g"><use xlink:href="#E"/><use xlink:href="#E"/></g><ellipse cx="240.6" cy="274.6" rx="49" ry="20.1" class="f r"/><use xlink:href="#F" class="g"/><g class="f"><use xlink:href="#F" class="m"/><path d="M205.8 240.6h0c2.6-1.3 5.6-2 8.7-2 10.9 0 19.8 8.7 20.1 19.6v.6.6c-.2 2.8-2.2 5.5-5.9 7.7-2.9 1.7-6.4 2.7-10.1 3.2 5.2-.9 8.6-6.7 7-13.2-1.8-7.7-9.3-18.5-19.8-16.5z" class="i"/></g><path d="M194.5 259.3v-.6-.6c.1-5.8 2.8-11 6.8-14.5-2.2 2.2-7 10.7-1.8 17.2 3.5 4.2 20 10.3 33.6 2.5-1 1.3-2.4 2.5-4.3 3.6-7.9 4.5-20.6 4.5-28.5 0-3.7-2.1-5.6-4.9-5.8-7.6z" class="g j"/><path d="M214.8 243.1c-.9 2.1.8 4.8 3.9 6.1 3 1.3 6.2.8 7.1-1.3s-.8-4.8-3.9-6.1c-3-1.3-6.2-.8-7.1 1.3zm11.6 8.3c-.5 1.1.2 2.4 1.5 3s2.8.2 3.2-.9c.5-1.1-.2-2.4-1.5-3-1.3-.5-2.7-.1-3.2.9z" class="h f"/><use xlink:href="#G" class="g"/><g class="f"><use xlink:href="#G" class="m"/><path d="M268.9 242.9h0c-2.2-1.1-4.8-1.7-7.4-1.7-9.3 0-16.8 7.4-17.1 16.6v.5.5c.2 2.4 1.9 4.7 5 6.5 2.4 1.4 5.4 2.3 8.6 2.7-4.4-.8-7.3-5.7-5.9-11.2 1.5-6.4 7.9-15.5 16.8-13.9z" class="i"/></g><path d="M278.6 258.8v-.5-.5c-.1-4.9-2.4-9.3-5.8-12.4 1.9 1.9 6 9.1 1.5 14.6-3 3.6-17 8.8-28.5 2.1.8 1.1 2 2.2 3.6 3.1 6.7 3.9 17.5 3.9 24.2 0 3.1-1.7 4.8-4.1 5-6.4z" class="g j"/><path d="M261.3 245.1c.8 1.7-.7 4.1-3.3 5.2s-5.3.6-6.1-1.1.7-4.1 3.3-5.2c2.6-1.2 5.4-.7 6.1 1.1zm-9.9 7c.4.9-.2 2-1.3 2.5s-2.3.1-2.7-.8.2-2 1.3-2.5c1.1-.4 2.3-.1 2.7.8z" class="h f"/><use xlink:href="#H" class="g"/><g class="f"><use xlink:href="#H" class="r"/><path d="M288.9 249.9h0c-1.5-.7-3.1-1.1-4.9-1.1-6.1 0-11.1 4.9-11.3 11v.3.3c.1 1.6 1.2 3.1 3.3 4.3 1.6.9 3.6 1.5 5.7 1.8-2.9-.5-4.8-3.8-3.9-7.4 1-4.2 5.2-10.3 11.1-9.2z" class="h"/></g><path d="M295.3 260.4v-.3-.3c-.1-3.3-1.6-6.2-3.8-8.2 1.2 1.3 4 6 1 9.6-2 2.4-11.2 5.8-18.8 1.4.6.7 1.4 1.4 2.4 2 4.4 2.5 11.6 2.5 16 0 1.9-1.1 3-2.6 3.2-4.2z" class="g j"/><path d="M283.9 251.3c.5 1.2-.5 2.7-2.2 3.4s-3.5.4-4-.7c-.5-1.2.5-2.7 2.2-3.4s3.5-.4 4 .7zm-6.6 4.7c.3.6-.1 1.3-.9 1.7-.7.3-1.5.1-1.8-.5s.1-1.3.9-1.7c.7-.3 1.5-.1 1.8.5z" class="h f"/><use xlink:href="#I" class="g"/><g class="f"><use xlink:href="#I" class="o"/><path d="M310.7 251.3h0c-2-1-4.3-1.5-6.7-1.5-8.3 0-15.1 6.6-15.4 14.9v.4.4c.2 2.1 1.7 4.2 4.5 5.8 2.2 1.3 4.9 2.1 7.7 2.4-4-.7-6.6-5.1-5.3-10 1.4-5.6 7.2-13.9 15.2-12.4z" class="i"/></g><path d="M319.3 265.6v-.4-.4a15.21 15.21 0 0 0-5.2-11.1c1.7 1.7 5.4 8.2 1.3 13.1-2.7 3.2-15.2 7.9-25.6 1.9.7 1 1.8 1.9 3.3 2.8 6 3.5 15.7 3.5 21.7 0 2.9-1.7 4.4-3.8 4.5-5.9z" class="g j"/><path d="M303.8 253.2c.7 1.6-.6 3.7-3 4.7-2.3 1-4.8.6-5.4-1-.7-1.6.6-3.7 3-4.7s4.8-.5 5.4 1zm-8.9 6.4c.4.8-.2 1.8-1.2 2.3-1 .4-2.1.1-2.5-.7s.2-1.8 1.2-2.3c1.1-.4 2.2-.1 2.5.7z" class="h f"/><use xlink:href="#J" class="l"/><use xlink:href="#J" class="f h"/><use xlink:href="#K" class="g"/><g class="f"><use xlink:href="#K" class="o"/><circle cx="249.9" cy="215" r="3.9" class="m"/><path d="M245.3 203.5c0-1.6 1.3-2.9 2.9-2.9s2.9 1.3 2.9 2.9-1.3 2.9-2.9 2.9-2.9-1.3-2.9-2.9z" class="o"/><path d="M239.7 198.8c0-.8.6-1.4 1.4-1.4s1.4.6 1.4 1.4-.6 1.4-1.4 1.4c-.7.1-1.4-.6-1.4-1.4z" class="m"/><path d="M228.2 200.6c0-2.2 1.8-3.9 3.9-3.9 2.2 0 3.9 1.8 3.9 3.9s-1.8 3.9-3.9 3.9c-2.2 0-3.9-1.8-3.9-3.9z" class="o"/><path d="M227.5 207.7a1.79 1.79 0 1 0 3.6 0 1.79 1.79 0 0 0-1.8-1.8c-1-.1-1.8.7-1.8 1.8z" class="m"/><path d="M227.7 214.7c0-2 1.6-3.6 3.6-3.6s3.6 1.6 3.6 3.6-1.6 3.6-3.6 3.6-3.6-1.6-3.6-3.6zm8.9 5.2c0-1.4 1.1-2.5 2.5-2.5s2.5 1.1 2.5 2.5-1.1 2.5-2.5 2.5-2.5-1.1-2.5-2.5zM224 203.5c0-.7.6-1.3 1.3-1.3s1.3.6 1.3 1.3-.6 1.3-1.3 1.3c-.7-.1-1.3-.6-1.3-1.3z" class="o"/><path d="M251.4 198.3c0-.9.7-1.7 1.7-1.7.9 0 1.7.7 1.7 1.7 0 .9-.7 1.7-1.7 1.7-1-.1-1.7-.8-1.7-1.7z" class="m"/><path d="M253 206.4c0-.9.7-1.7 1.7-1.7.9 0 1.7.7 1.7 1.7 0 .9-.7 1.7-1.7 1.7-.9 0-1.7-.8-1.7-1.7z" class="o"/><path d="M237.4 208.1c0-.9.7-1.7 1.7-1.7.9 0 1.7.7 1.7 1.7 0 .9-.7 1.7-1.7 1.7-.9-.1-1.7-.8-1.7-1.7z" class="m"/></g><use xlink:href="#L" class="l"/><g class="f"><use xlink:href="#L" class="h"/><path d="M331.4 259.2h0c-1.2-.6-2.6-.9-4.1-.9-5.1 0-9.2 4.1-9.4 9.1v.3.3c.1 1.3 1 2.6 2.7 3.6 1.3.8 3 1.3 4.7 1.5-2.4-.4-4-3.1-3.3-6.1 1-3.7 4.5-8.7 9.4-7.8z" class="h"/></g><path d="M336.7 267.9v-.3-.3c-.1-2.7-1.3-5.1-3.2-6.8 1 1 3.3 5 .8 8-1.6 2-9.3 4.8-15.6 1.2.5.6 1.1 1.2 2 1.7 3.7 2.1 9.6 2.1 13.2 0 1.8-.9 2.7-2.2 2.8-3.5z" opacity=".2" class="g"/><path d="M327.2 260.4c.4 1-.4 2.2-1.8 2.9-1.4.6-2.9.3-3.3-.6-.4-1 .4-2.2 1.8-2.9s2.9-.4 3.3.6zm-5.4 3.9c.2.5-.1 1.1-.7 1.4s-1.3.1-1.5-.4.1-1.1.7-1.4 1.3-.1 1.5.4z" class="h f"/><use xlink:href="#M" class="g"/><g class="f"><use xlink:href="#M" opacity=".6"/><path d="M315.4 263.8h0c-1.7-.8-3.6-1.3-5.6-1.3-7 0-12.7 5.6-12.9 12.5v.4.4c.1 1.8 1.4 3.5 3.8 4.9 1.8 1.1 4.1 1.7 6.5 2-3.3-.6-5.5-4.3-4.5-8.4 1.2-4.8 6-11.7 12.7-10.5z" class="h"/></g><path d="M322.7 275.8v-.4-.4c-.1-3.7-1.8-7-4.4-9.3 1.4 1.4 4.5 6.9 1.1 11-2.2 2.7-12.8 6.6-21.5 1.6.6.8 1.5 1.6 2.7 2.3 5 2.9 13.2 2.9 18.2 0 2.5-1.3 3.7-3 3.9-4.8z" class="g j"/><path d="M309.7 265.4c.6 1.3-.5 3.1-2.5 3.9-1.9.9-4 .5-4.6-.8s.5-3.1 2.5-3.9 4-.5 4.6.8zm-7.5 5.4c.3.7-.1 1.5-1 1.9-.8.4-1.8.1-2.1-.6s.1-1.5 1-1.9 1.8-.1 2.1.6z" class="i f"/><use xlink:href="#N" class="g"/><g class="f"><use xlink:href="#N" class="m"/><path d="M290.8 267.4h0c-2.1-1-4.5-1.6-6.9-1.6-8.7 0-15.8 6.9-16 15.6v.4.4c.2 2.2 1.7 4.4 4.7 6.1 2.3 1.3 5.1 2.1 8 2.5-4.2-.7-6.8-5.3-5.6-10.5 1.5-5.9 7.5-14.5 15.8-12.9z" class="i"/></g><path d="M299.8 282.2v-.4-.4c-.1-4.6-2.2-8.7-5.4-11.6 1.7 1.8 5.6 8.5 1.4 13.7-2.8 3.4-15.9 8.2-26.7 2 .8 1 1.9 2 3.4 2.9 6.2 3.6 16.4 3.6 22.6 0 3-1.8 4.5-3.9 4.7-6.2z" class="g j"/><path d="M283.7 269.4c.7 1.6-.7 3.8-3.1 4.9s-5 .6-5.7-1 .7-3.8 3.1-4.9 4.9-.6 5.7 1zm-9.3 6.6c.4.8-.2 1.9-1.2 2.4s-2.2.1-2.6-.7.2-1.9 1.2-2.4c1.1-.4 2.2-.1 2.6.7z" class="i f"/><use xlink:href="#O" class="g"/><g class="f"><use xlink:href="#O" class="m"/><path d="M235 266.5h0c-1.8-.8-3.7-1.3-5.8-1.3a13.39 13.39 0 0 0-13.4 13v.4.4c.2 1.9 1.5 3.7 3.9 5.1 1.9 1.1 4.3 1.8 6.7 2.1-3.5-.6-5.7-4.5-4.7-8.8 1.3-5 6.3-12.2 13.3-10.9z" class="i"/></g><path d="M242.6 279v-.4-.4a13.3 13.3 0 0 0-4.5-9.7c1.5 1.5 4.7 7.1 1.2 11.4-2.3 2.8-13.3 6.9-22.3 1.7.7.9 1.6 1.7 2.8 2.4 5.2 3 13.7 3 18.9 0 2.4-1.4 3.7-3.2 3.9-5z" class="g j"/><path d="M229 268.2c.6 1.4-.6 3.2-2.6 4.1s-4.1.5-4.7-.9.6-3.2 2.6-4.1c2-.8 4.1-.5 4.7.9zm-7.7 5.6c.3.7-.1 1.6-1 2s-1.8.1-2.1-.6.1-1.6 1-2c.8-.4 1.8-.1 2.1.6z" class="i f"/><use xlink:href="#P" class="g"/><g class="f"><use xlink:href="#P" class="m"/><path d="M258.2 270.7h0c-1.5-.7-3.3-1.2-5.1-1.2-6.4 0-11.6 5.1-11.7 11.4v.3.3c.1 1.6 1.3 3.2 3.4 4.5 1.7 1 3.7 1.6 5.9 1.8-3-.5-5-3.9-4.1-7.7 1-4.2 5.5-10.5 11.6-9.4z" class="i"/></g><path d="M264.8 281.6v-.3-.3c-.1-3.4-1.6-6.4-4-8.5 1.3 1.3 4.1 6.3 1 10-2 2.5-11.7 6-19.6 1.5.6.8 1.4 1.5 2.5 2.1 4.6 2.6 12 2.6 16.6 0 2.2-1.2 3.4-2.8 3.5-4.5z" class="g j"/><path d="M252.9 272.2c.5 1.2-.5 2.8-2.3 3.6s-3.6.4-4.2-.8c-.5-1.2.5-2.8 2.3-3.6 1.8-.7 3.7-.4 4.2.8zm-6.8 4.9c.3.6-.1 1.4-.9 1.7s-1.6.1-1.9-.5.1-1.4.9-1.7c.8-.4 1.7-.1 1.9.5z" class="i f"/><use xlink:href="#Q" class="g"/><g class="f"><use xlink:href="#Q" opacity=".2"/><path d="M341.4 264.6h0c-.7-.4-1.6-.6-2.5-.6-3.1 0-5.6 2.4-5.7 5.5v.2.2c.1.8.6 1.6 1.7 2.2.8.5 1.8.8 2.8.9-1.5-.3-2.4-1.9-2-3.7.7-2.2 2.8-5.2 5.7-4.7z" class="h"/></g><path d="M344.6 269.9v-.2-.2c0-1.6-.8-3.1-1.9-4.1.6.6 2 3 .5 4.8-1 1.2-5.6 2.9-9.4.7.3.4.7.7 1.2 1 2.2 1.3 5.8 1.3 8 0 1-.5 1.5-1.2 1.6-2z" opacity=".05" class="k"/><path d="M338.9 265.3c.3.6-.2 1.3-1.1 1.7s-1.8.2-2-.4c-.3-.6.2-1.3 1.1-1.7.8-.3 1.7-.1 2 .4zm-3.3 2.4c.1.3-.1.7-.4.8-.4.2-.8 0-.9-.3s.1-.7.4-.8c.4-.1.8 0 .9.3z" class="i f"/><use xlink:href="#R" class="l"/><g class="f"><use xlink:href="#R" class="h"/><path d="M155.8 254.4h0c1.2-.6 2.6-.9 4.1-.9 5.1 0 9.2 4.1 9.4 9.1v.3.3c-.1 1.3-1 2.6-2.7 3.6-1.3.8-3 1.3-4.7 1.5 2.4-.4 4-3.1 3.3-6.1-1-3.7-4.5-8.7-9.4-7.8z" class="h"/></g><path d="M150.5 263.1v-.3-.3c.1-2.7 1.3-5.1 3.2-6.8-1 1-3.3 5-.8 8 1.6 2 9.3 4.8 15.6 1.2-.5.6-1.1 1.2-2 1.7-3.7 2.1-9.6 2.1-13.2 0-1.8-.9-2.7-2.2-2.8-3.5z" opacity=".2" class="g"/><path d="M160 255.6c-.4 1 .4 2.2 1.8 2.9 1.4.6 2.9.3 3.3-.6.4-1-.4-2.2-1.8-2.9-1.4-.6-2.9-.4-3.3.6zm5.4 3.9c-.2.5.1 1.1.7 1.4s1.3.1 1.5-.4-.1-1.1-.7-1.4-1.3-.1-1.5.4z" class="i f"/><use xlink:href="#S" class="g"/><g class="f"><use xlink:href="#S" class="o"/><path d="M178.3 254.3h0c1.8-.9 3.8-1.4 5.9-1.4 7.4 0 13.4 5.9 13.6 13.2v.4.4c-.2 1.9-1.5 3.7-4 5.2-1.9 1.1-4.3 1.8-6.8 2.1 3.5-.6 5.8-4.5 4.7-8.9-1.3-5-6.4-12.3-13.4-11z" class="i"/></g><path d="M170.6 266.9v-.4-.4c.1-3.9 1.9-7.4 4.6-9.8-1.5 1.5-4.8 7.2-1.2 11.6 2.3 2.9 13.5 7 22.6 1.7-.7.9-1.6 1.7-2.9 2.4-5.3 3.1-13.9 3.1-19.2 0-2.4-1.3-3.8-3.2-3.9-5.1z" class="g j"/><path d="M184.3 256c-.6 1.4.6 3.2 2.6 4.1s4.2.5 4.8-.9-.6-3.2-2.6-4.1-4.2-.5-4.8.9zm7.9 5.7c-.3.7.1 1.6 1 2s1.9.1 2.2-.6-.1-1.6-1-2-1.9-.2-2.2.6z" class="h f"/><use xlink:href="#T" class="l"/><g class="f"><use xlink:href="#T" opacity=".6"/><path d="M165.9 262.9h0c1.7-.8 3.6-1.3 5.6-1.3 7 0 12.7 5.6 12.9 12.5v.4.4c-.1 1.8-1.4 3.5-3.8 4.9-1.8 1.1-4.1 1.7-6.5 2 3.3-.6 5.5-4.3 4.5-8.4-1.1-4.8-6-11.7-12.7-10.5z" class="h"/></g><path d="M158.6 274.9v-.4-.4c.1-3.7 1.8-7 4.4-9.3-1.4 1.4-4.5 6.9-1.1 11 2.2 2.7 12.8 6.6 21.5 1.6-.6.8-1.5 1.6-2.7 2.3-5 2.9-13.2 2.9-18.2 0-2.5-1.3-3.7-3.1-3.9-4.8z" class="g q"/><path d="M171.7 264.5c-.6 1.3.5 3.1 2.5 3.9 1.9.9 4 .5 4.6-.8s-.5-3.1-2.5-3.9c-2-.9-4.1-.5-4.6.8zm7.4 5.4c-.3.7.1 1.5 1 1.9.8.4 1.8.1 2.1-.6s-.1-1.5-1-1.9-1.8-.1-2.1.6z" class="i f"/><use xlink:href="#U" class="g"/><g class="f"><use xlink:href="#U" class="m"/><path d="M195 265.8h0c2.1-1 4.5-1.6 6.9-1.6 8.7 0 15.8 6.9 16 15.6v.4.4c-.2 2.2-1.7 4.4-4.7 6.1-2.3 1.3-5.1 2.1-8 2.5 4.2-.7 6.8-5.3 5.6-10.5-1.5-5.8-7.5-14.4-15.8-12.9z" class="i"/></g><path d="M186 280.7v-.4-.4c.1-4.6 2.2-8.7 5.4-11.6-1.7 1.8-5.6 8.5-1.4 13.7 2.8 3.4 15.9 8.2 26.7 2-.8 1-1.9 2-3.4 2.9-6.2 3.6-16.4 3.6-22.6 0-3-1.8-4.5-4-4.7-6.2z" class="g j"/><path d="M202.1 267.8c-.7 1.6.7 3.8 3.1 4.9s5 .6 5.7-1-.7-3.8-3.1-4.9-4.9-.6-5.7 1zm9.3 6.7c-.4.8.2 1.9 1.2 2.4s2.2.1 2.6-.7-.2-1.9-1.2-2.4c-1.1-.5-2.2-.2-2.6.7z" class="i f"/><use xlink:href="#V" class="g"/><g class="f"><use xlink:href="#V" class="r"/><path d="M263.5 277.6h0c-1.9-.9-4.1-1.5-6.3-1.5-7.9 0-14.4 6.3-14.6 14.2v.4.4c.2 2 1.6 4 4.3 5.6 2.1 1.2 4.6 2 7.3 2.3-3.8-.7-6.2-4.9-5.1-9.6 1.3-5.3 6.8-13.2 14.4-11.8z" class="h"/></g><path d="M271.7 291.2v-.4-.4a14.47 14.47 0 0 0-5-10.6c1.6 1.6 5.1 7.8 1.3 12.5-2.5 3.1-14.5 7.5-24.3 1.8.7 1 1.7 1.8 3.1 2.6 5.7 3.3 15 3.3 20.7 0 2.6-1.5 4-3.5 4.2-5.5z" class="g j"/><path d="M257 279.5c.7 1.5-.6 3.5-2.8 4.4-2.2 1-4.5.5-5.2-.9-.7-1.5.6-3.5 2.8-4.4 2.2-1 4.5-.6 5.2.9zm-8.5 6c.3.8-.2 1.7-1.1 2.2-1 .4-2 .1-2.3-.6-.3-.8.2-1.7 1.1-2.2.9-.4 2-.1 2.3.6z" class="h f"/><use xlink:href="#W" class="g"/><g class="f"><use xlink:href="#W" class="r"/><path d="M218.6 279.8h0c1.8-.9 3.9-1.4 6-1.4 7.5 0 13.7 6 13.9 13.5v.4.4c-.2 1.9-1.5 3.8-4.1 5.3-2 1.1-4.4 1.9-7 2.2 3.6-.6 5.9-4.6 4.8-9.1-1.2-5.1-6.4-12.6-13.6-11.3z" class="h"/></g><path d="M210.7 292.7v-.4-.4c.1-4 1.9-7.6 4.7-10-1.5 1.6-4.9 7.4-1.2 11.9 2.4 2.9 13.8 7.1 23.2 1.7-.7.9-1.7 1.8-2.9 2.5-5.4 3.1-14.2 3.1-19.7 0-2.6-1.4-3.9-3.3-4.1-5.3z" class="g j"/><path d="M224.8 281.6c-.6 1.4.6 3.3 2.7 4.2s4.3.5 4.9-.9-.6-3.3-2.7-4.2-4.3-.5-4.9.9zm8 5.8c-.3.7.1 1.7 1.1 2.1.9.4 1.9.1 2.2-.6s-.1-1.7-1.1-2.1c-.9-.5-1.9-.2-2.2.6z" class="h f"/><use xlink:href="#X" class="g"/><g class="f"><use xlink:href="#X" class="r"/><path d="M243.6 291.9h0c-.7-.4-1.6-.6-2.5-.6-3.1 0-5.6 2.4-5.7 5.5v.2.2c.1.8.6 1.6 1.7 2.2.8.5 1.8.8 2.8.9-1.5-.3-2.4-1.9-2-3.7.6-2.2 2.7-5.3 5.7-4.7z" opacity=".6"/></g><path d="M246.8 297.1v-.2-.2c0-1.6-.8-3.1-1.9-4.1.6.6 2 3 .5 4.8-1 1.2-5.6 2.9-9.4.7.3.4.7.7 1.2 1 2.2 1.3 5.8 1.3 8 0 .9-.4 1.5-1.2 1.6-2z" class="g j"/><path d="M241.1 292.6c.3.6-.2 1.3-1.1 1.7s-1.8.2-2-.4c-.3-.6.2-1.3 1.1-1.7.8-.3 1.7-.2 2 .4zm-3.3 2.3c.1.3-.1.7-.4.8-.4.2-.8 0-.9-.3s.1-.7.4-.8.7 0 .9.3z" class="h f"/><use xlink:href="#Y" class="l"/><g class="f"><use xlink:href="#Y" opacity=".2"/><path d="M145.8 259.9h0c.7-.4 1.6-.6 2.5-.6 3.1 0 5.6 2.4 5.7 5.5v.2.2c-.1.8-.6 1.6-1.7 2.2-.8.5-1.8.8-2.8.9 1.5-.3 2.4-1.9 2-3.7-.6-2.3-2.8-5.3-5.7-4.7z" class="h"/></g><path d="M142.6 265.1v-.2-.2c0-1.6.8-3.1 1.9-4.1-.6.6-2 3-.5 4.8 1 1.2 5.6 2.9 9.4.7-.3.4-.7.7-1.2 1-2.2 1.3-5.8 1.3-8 0-1-.4-1.5-1.2-1.6-2z" opacity=".05" class="k"/><path d="M148.3 260.6c-.3.6.2 1.3 1.1 1.7s1.8.2 2-.4c.3-.6-.2-1.3-1.1-1.7-.8-.4-1.7-.2-2 .4zm3.3 2.3c-.1.3.1.7.4.8.4.2.8 0 .9-.3s-.1-.7-.4-.8c-.4-.1-.8 0-.9.3z" class="i f"/><path d="M259.2 165.7l3.1-37.6 12.5 7.2c6 3.5 8.7 12.3 7.7 25.4l-1.6 21.1-3.4-11.7c-1.8-6.4-6.5-8.5-13.2-6.2l-5.1 1.8zm-37.2 0l-3.1-37.6-12.5 7.2c-6 3.5-8.7 12.3-7.7 25.4l1.6 21.1 3.4-11.7c1.8-6.4 6.5-8.5 13.2-6.2l5.1 1.8z" class="n"/><path d="M259.1 183.9h0l-2.3-10.4h-32.3l-2.3 10.4h0c-.6 3.1 1.2 6.4 5.3 8.8 7.3 4.2 19 4.2 26.3 0 4.1-2.4 5.9-5.7 5.3-8.8z" class="p"/><ellipse cx="240.6" cy="174.8" rx="16.3" ry="9.4" class="k"/><path d="M222.1 183.9c-.6 3.1 1.2 6.4 5.3 8.8 7.3 4.2 19 4.2 26.3 0 4.2-2.4 5.9-5.7 5.3-8.8l-.7-3c.6 2.8-1 5.9-4.8 8.1-7.2 4.1-18.8 4.1-25.9 0-3.9-2.2-5.5-5.3-4.8-8.1l-.7 3zm1.5-6.5c-.6 2.8.9 5.7 4.7 7.9 6.8 3.9 17.8 3.9 24.6 0 3.7-2.2 5.3-5.1 4.7-7.9l-.9-3.9c.7 2.8-.9 5.8-4.6 7.9-6.4 3.7-16.7 3.7-23 0-3.7-2.2-5.3-5.1-4.6-7.9l-.9 3.9z" class="n"/><path d="M252.7 173.5h-2.4l3.2 15c.3 2.6-5.5 7.1-20.9 6.2 6.9 1.9 15.4 1.2 21.2-2.1 1.6-.9 2.9-2 3.8-3.1l-4.9-16z" class="f j"/><ellipse cx="240.6" cy="174.8" rx="16.3" ry="9.4" class="k"/><path d="M273 98.5c0-40.2-17-74.9-29.6-82.9-.1-.1-.2-.2-.3-.2h-.1 0c-.7-.4-1.5-.7-2.4-.7s-1.7.2-2.4.7h0-.1c-.1.1-.2.1-.3.2-12.6 8-29.6 42.7-29.6 82.9 0 38.6 10.8 72.9 11.9 76.1 0 .1.1.2.1.2h0 0c.8 2.2 2.7 4.4 5.7 6.1 8.2 4.7 21.4 4.7 29.6 0 3.1-1.8 5-4 5.8-6.4.9-3.1 11.7-37.4 11.7-76z" class="l"/><path d="M252.7 25.2c-3.1-4.5-6.3-7.8-9.2-9.7-.1-.1-.2-.1-.3-.2h-.1 0c-.7-.4-1.5-.7-2.4-.7s-1.7.2-2.4.7h0-.1c-.1.1-.2.1-.3.2-2.9 1.9-6.1 5.2-9.2 9.7-1.8 2.6-3.6 5.6-5.4 9 .5 2.1 2.2 4.1 5 5.7 6.9 4 18.1 4 25 0 2.8-1.6 4.4-3.6 5-5.7l-5.6-9z" class="k"/><path d="M208.2 98.5c0 38.6 10.8 72.9 11.9 76.1 0 .1.1.2.1.2h0 0c.8 2.2 2.7 4.4 5.7 6.1 1.4.8 2.9 1.5 4.5 2-5.3-19-11.5-51.3-11.5-83.4 0-44.5 11-76 18.9-83.9-12.7 8-29.6 42.7-29.6 82.9z" class="q"/><path d="M273 98.5c0 38.6-10.8 72.9-11.9 76.1 0 .1-.1.2-.1.2h0 0c-.8 2.2-2.7 4.4-5.7 6.1 6.1-22.4 13.1-49.3 13.1-81.5 0-44.5-17.1-76-25.1-83.9 12.8 8.1 29.7 42.8 29.7 83z" opacity=".35" class="f"/><path d="M277.1 155.1l-11.7-21.6-3.1 1.8-5.4 34 5.1 4.1a37.68 37.68 0 0 1 13.2 21.5l3.4 15.6 3.1-21.9c1.5-10.7 1.4-23.1-4.6-33.5z" class="k"/><path d="M256.9 169.3l5.4-34 11.7 21.6c6 10.4 7.2 22.4 6.2 34.3l-1.6 19.2-3.4-15.6a37.68 37.68 0 0 0-13.2-21.5l-5.1-4z" class="p"/><path d="M204.1 155.1l11.7-21.6 3.1 1.8 5.4 34-5.1 4.1a37.68 37.68 0 0 0-13.2 21.5l-3.4 15.6-3.1-21.9c-1.5-10.7-1.4-23.1 4.6-33.5z" class="k"/><g class="p"><path d="M224.3 169.3l-5.4-34-11.7 21.6c-6 10.4-7.2 22.4-6.2 34.3l1.6 19.2 3.4-15.6a37.68 37.68 0 0 1 13.2-21.5l5.1-4z"/><circle transform="matrix(.08248 -.9966 .9966 .08248 143.94 310.5017)" cx="240.6" cy="77.1" r="14.2"/></g><circle cx="240.6" cy="77.1" r="11.3" class="g"/><circle cx="240.6" cy="77.1" r="11.3" class="f o"/><path d="M250.7 111.1a10.07 10.07 0 1 1-20.2 0 10.07 10.07 0 1 1 20.2 0z" class="p"/><g transform="matrix(.2298 -.9732 .9732 .2298 77.1813 319.749)"><circle cx="240.6" cy="111.1" r="7.4" class="g"/><circle cx="240.6" cy="111.1" r="7.4" class="f o"/></g><path d="M196.4 61.8c0 .2-.2.4-.5.4h-.5c-1.2-.1-2.2.8-2.4 1.9l-.1.4c0 .2-.3.4-.5.4s-.4-.2-.4-.5v-.5h0c.1-1.2-.8-2.2-1.9-2.4l-.4-.1c-.2 0-.4-.3-.4-.5s.2-.4.5-.4h.5c1.2 0 2.2-.8 2.4-1.9l.1-.4c0-.2.3-.4.5-.4s.4.2.4.5v.5c0 1.2.8 2.2 1.9 2.4l.4.1c.2.1.4.3.4.5zm-3.7.8c.3-.5.8-.8 1.4-1.1-.5-.3-.8-.8-1.1-1.4-.3.5-.8.8-1.4 1.1.5.4.8.9 1.1 1.4zm-7.7-26c-.2 1.6-1.7 2.8-3.3 2.6s-2.8-1.7-2.6-3.3 1.7-2.8 3.3-2.6c1.7.1 2.8 1.6 2.6 3.3zm-5-.6c-.1 1.1.7 2.2 1.8 2.3s2.2-.7 2.3-1.8-.7-2.2-1.8-2.3c-1.1-.2-2.2.6-2.3 1.8zm27.7-10.2c0 .3-.3.4-.5.4l-1.6-.2c-.3 0-.4-.3-.4-.5 0-.3.3-.4.5-.4l1.6.2c.2 0 .4.3.4.5zm.8 1.1l-.2 1.6c0 .3-.3.4-.5.4-.3 0-.4-.3-.4-.5l.2-1.6c0-.3.3-.4.5-.4s.4.2.4.5zm2.7-.7c0 .3-.3.4-.5.4l-1.6-.2c-.3 0-.4-.3-.4-.5 0-.3.3-.4.5-.4l1.6.2c.2 0 .4.3.4.5zm-2.3-2.9l-.2 1.6c0 .3-.3.4-.5.4-.3 0-.4-.3-.4-.5l.2-1.6c0-.3.3-.4.5-.4.3.1.4.3.4.5zm79.9 38.2c.2.1.4.4.3.6l-.1.4c-.4 1.1.1 2.3 1.1 2.9l.4.2c.2.1.3.4.2.6s-.4.3-.6.3l-.4-.1c-1.1-.4-2.3.1-2.9 1.1l-.2.4c-.1.2-.4.3-.6.2s-.3-.4-.3-.6l.1-.4c.4-1.1-.1-2.3-1.1-2.9l-.4-.2c-.2-.1-.3-.4-.2-.6s.4-.3.6-.3l.4.1c1.1.4 2.3-.1 2.9-1.1l.2-.4c.2-.2.4-.3.6-.2zm-.3 3.7c-.3-.5-.6-1-.6-1.6-.5.3-1 .6-1.6.6.3.5.6 1 .6 1.6.5-.3 1.1-.5 1.6-.6zm-10.3-32.7c.6.2 1.1.6 1.4 1.2.9 1.4.5 3.3-.9 4.2s-3.3.5-4.2-.9-.5-3.3.9-4.2c.9-.6 1.9-.7 2.8-.3zm-1.9 4.7c.1 0 .2.1.3.1.5.1 1.1 0 1.6-.3s.8-.8.9-1.3 0-1.1-.3-1.6c-.6-1-1.9-1.2-2.9-.6s-1.2 1.9-.6 2.9c.3.4.6.7 1 .8zm26.3 3.9l1.5.6c.2.1.4.4.3.6s-.4.3-.6.3l-1.4-.6c-.2-.1-.4-.4-.3-.6-.1-.3.2-.4.5-.3zm0-2.7c0 .1 0 .1 0 0 .2.1.4.4.3.6l-.6 1.4c-.1.2-.4.4-.6.3s-.4-.4-.3-.6l.6-1.4c.1-.2.4-.3.6-.3zm-3.3 1.4l1.5.6c.2.1.4.4.3.6s-.4.3-.6.3l-1.4-.6c-.2-.1-.4-.4-.3-.6 0-.3.2-.4.5-.3zm2 1.9c.2.1.4.4.3.6l-.6 1.4c-.1.2-.4.4-.6.3s-.4-.4-.3-.6l.6-1.4c.1-.3.4-.4.6-.3z" class="l"/><path d="M114.9 299.5c.2.8.6 3 4.7 3s6.5-1.7 7.3-3.8.3-3.7.3-5.5c-.1-1.8 1.3-3 1.6-4 .4-1.5-.8-3.5-.8-3.5l-13.1 13.8zm-37.7-9.8c-.1.1-.1 1.4.4 2 .3.4 3.3 2.1 6.6 1.4 3.4-.7 5-1.7 6.8-3 1.9-1.3 3.2-1.6 5.3-1.8 2-.2 3.4-.7 3.5-1.2.2-.9.2-1.5-.2-1.4l-22.4 4z" class="n"/><path d="M126.7 282.8c0 3.8-7.2 4.4-7 1.4l-2.5-8.8 8.1-.9 1.4 8.3z" class="s"/><path d="M114.9 297.6c.3-.7 1.2-1.8 1.6-2.5 2-3.5 3-7.3 2.7-11.3 0-.2 0-.6.2-.8s.4 0 .7.1.7.2 1.3.2c1.5 0 3-.6 3.4-.6.3 0 .5.9.6 1.8.5-.4.5-1.1 1-1.5.2-.2.3-.3.3-.6 0-.2-.1-.4-.1-.6.4-.2.9 1.2 1.3 2.2.5 1.2 1.2 2.5.8 3.9-.2.7-.5 1.4-.9 2.1-.6 1.2-1 2.5-1 3.8 0 .6.1 1.1.1 1.7 0 2-1.2 3.7-3 4.6-2.4 1.1-6.1 1.5-8.5.1-.8-.6-.7-1.9-.5-2.6z" class="k"/><path d="M97.6 279.7c-2 1.5-4.2 1.6-6.6.4l-1.2-12.8h8.8l-1 12.4z" class="s"/><path d="M116.6 193.4c1.6 14.9 3.8 47.3 3.8 47.3s2.4 4.5 3.4 11.7c1.2 8.9 2.6 27.2 2.6 27.2s-4.2 2.7-8.2 1.4c0 0-9.3-28.1-11.1-36.8-1.6-7.6-4.5-26.1-4.5-26.1L99 242.2s1.4 4.4 1.2 10.4c-.2 4.1-1.8 21.2-1.8 21.2-1.3 1.3-6.5 1.4-8.2.3l-2.8-31.9C86.9 236.5 86 193 86 193l30.6.4z" class="n"/><path d="M102.6 218l-2-9.2s-4.5-1-7.6-3.6c0 0 1.2 2.9 6 5.2l2 8.6-1.8 21.6 3.4-22.6z"/><path d="M78.7 287c3.3-1.5 6.4-3.3 8.3-4.9.5-.5 1-.8 1.3-1.2.8-.9 1.1-2.8 1.5-3.1.1-.1.3 0 .5.1.1-.2.3-.2.4-.2l.1.5c.5.3 1.3.6 2.4.6 2.1.1 2.1-.3 2.3.3 0 .2.1.4.1.7 1.1-.2 2.1-.6 2.1-1l.1-1.5c1.1-.2 1 1.9 1.5 4 .4 1.8.9 3 .4 4.4-1.6 1.5-4.5 1.3-6.2 1.7-2.3.5-3.3 2.3-6.5 3.6-5.2 2.1-8.6.1-9.6-.7-.7-1.1-.5-2.4 1.3-3.3z" class="k"/><path d="M80.8 156.8c-5.1 4.8-10.7 11.1-10.7 11.1-.9-.3-9.3-4.5-11.4-6-.7-.5-1.7-1.1-2.1-1.9-.4-.7-.5-1.8-.8-2.7-.4-1.4-.7-2.9-1.4-4.2-.8-1.6-2.6-2.7-4.3-3-.7-.2-1.4-.2-2.1-.5a2.73 2.73 0 0 1-1.2-.9c-.2-.2-.4-.5-.7-.6-.5-.2-.7.1-.8.5-.1.6-.1 1.2.1 1.7.3.9.9 1.6 1.4 2.4.7 1.2 1.3 2.9 1.2 4.3 0 .3-.1.9-.5.5-.5-.5-.9-1.1-1.5-1.5s-1.3-.7-2-.6a.55.55 0 0 0-.5.3c-.2.2-.1.4.1.6s.3.4.4.6c.3.4.5.9.8 1.3 1.5 2.6 3.3 5.2 6 6.7l1.2.6c1.7.9 4.7 3.3 7.1 5.1 2.2 1.6 5.8 3.6 7.1 4.3 3.4 1.9 5 1.9 5.8 1.7s1.6-.8 3.2-1.8c3.5-2.2 16.4-13.3 16.4-13.3l2.7-12.3c-4.5-.1-6.5 1-13.5 7.6z" class="s"/><path d="M94.5 149.2c-3-.4-6.1 0-10 3.5-5.1 4.5-14.4 14.7-14.4 14.7s-4.4-2-9.2-4.5c-.6 0-2.1 1.2-2.8 2.7-.7 1.6-.9 2.9-.7 4.1 0 0 6.7 4.5 10.9 6.7 3.6 1.8 4.9.6 7.6-1 2.7-1.7 15.5-10.9 15.5-10.9l3.1-15.3z" class="k"/><path d="M70.1 167.4c-1.8 1.5-2.4 4.2-2.4 4.2s-.5-2.9 1.3-4.7l1.1.5zm33.9-17.7c4.2.6 8.9 1 11.9 1.4 3.2.4 3.3 2.5 3 7.9-.4 7.8-2.4 16.8-2.8 23.4l1.1 13.7c-3.7 4-21.7 5.8-31.2-.1v-33.2c.5-8.1 5.1-13.3 8.1-13.5 0 0 2.7-.6 9.9.4z" class="p"/><path d="M98.4 158.9l1.2 26.3c.3 2.2-2.4 5.5-3.2 5.4s-3.4-2.6-3.8-5c.2-3 2.5-23.8 3.9-27l1.9.3z" class="l"/><path d="M96.4 159c0-.1.1-.2.1-.3l1.9.2v.7c-.7 0-1.7-.4-2-.6z" class="q"/><path d="M99.3 154.9c-1.5.2-2.8-.2-2.8-.2s-.5 1-.7 2c0 0 .1 1 .7 2 0 0 .7.5 1.9.2 0 0 1.2-.8 1.6-1.5-.1-.7-.5-2.3-.7-2.5z" class="l"/><g class="n"><path d="M95.1 124.6s-2.3.3-3.1 2c-.7 1.5-.5 5.1.5 9.1 1 3.9 1.9 6.3 2.5 7.4s1.7 1.4 1.7 1.4l-.1-4.7-.2-3.3s2.1-2.9 2.3-5.2c.3-3-.3-4.2-.3-4.2l-3.3-2.5z"/><path d="M94.6 125.1l-3.2-1.5c.5-1 1.5-1.4 2.4-1 .9.5 1.2 1.6.8 2.5zm6.6 3.8c0 4.2 3.5 7.7 7.7 7.7s7.7-3.5 7.7-7.7-3.5-7.7-7.7-7.7-7.7 3.4-7.7 7.7z"/></g><path d="M96.5 136c-.8.7-1.4-1.1-2.1-1.8s-2.8-1.6-3.9.6c-1.1 2.3 1 5.4 2.6 6.2 2.4 1.1 3.4-1.3 3.4-1.3l.2 8.1c-1.6 3.6.3 4.9 1.1 7 .5-1.8 5.4-.7 8.4-4.8v-3.2s2.6.4 3.9.2c2.1-.3 3.3-2 3.9-4.3 1-3.7 1.5-10 0-17.3-2.4-1.9-10.7-1.6-15.8 1.6.6 6.5-.9 8.3-1.7 9z" class="s"/><path d="M115.4 120.3c-.1-.1-.2-.2-.3-.2s-.2.1-.3.1c-.3.2-1 .8-1.9 1.3.2-.9.2-1.7 0-2.6-.1-.5-.2-1.8-.9-1.9-.4-.1-.7.2-1 .5-2.6 2.5-6.1 1.3-9.2 1.4-2.6.1-5.8 1.2-7 3.7-.5 1.2-.6 2.4.4 3.2.9.7 2.1 1 3.2 1.2 5.3.9 12.8 3.1 16.7-1.8.6-.7.8-1.5.8-2.6 0-.9-.2-1.6-.5-2.3z" class="n"/><path d="M106.4 146.8s-4.8-1-6.5-1.8c-1.1-.6-2.1-1.6-2.3-2.3 0 0 .3 1.4 1.3 2.7 1.2 1.6 7.5 2.7 7.5 2.7v-1.3z" class="t"/><path d="M105.2 134.6a.94.94 0 0 1-1 1c-.5 0-1-.4-1-1a.94.94 0 0 1 1-1 .94.94 0 0 1 1 1zm-.4-3.6l-2.1 1c-.3-.6 0-1.3.6-1.6s1.3 0 1.5.6z" class="n"/><path d="M105.5 140.6l3.1 1.1c-.3.9-1.2 1.3-2.1 1-.8-.2-1.3-1.2-1-2.1z" fill="#c76668"/><path d="M106.5 142.8c.3.1.6.1.8.1 0-.8-.7-1.4-1.5-1.4-.1 0-.3 0-.4.1.2.5.6 1 1.1 1.2z" class="t"/><path d="M114 131.6l-2.2-.8c.2-.6.9-1 1.5-.7.5.2.9.9.7 1.5zm-.9 2.6a.94.94 0 0 1-1 1c-.5 0-1-.4-1-1a.94.94 0 0 1 1-1c.6 0 1 .5 1 1z" class="n"/><path d="M108.3 133.4l.4 6.1 3-1.1z" class="t"/><g class="k"><path d="M106.3 147.1c.6 0 .9.1 1.4 1.1l1.1 2.2s0 2.3-2.1 4.4c-2 2.1-6.6 3.5-6.6 3.5l-.7-2.9c-.6-1.9-1.6-.4-1.6-.4s.1-.8.5-1.1c.4-.4 3-.6 5.1-1.9s2.8-3.6 2.8-3.6l.1-1.3z"/><path d="M97.9 154.9c0-1.1-.3-1.3-.5-1.7-.6-.9-.6-1.6-.6-2.5v-2.8c-.7.1-1.2.2-1.7 1.3-.4 1.1-1.2 3.3-.9 5.5.4 2.2 1.3 2.9 1.3 2.9s.5-1.8.9-2.7 1-1.1 1.5 0z"/></g><path d="M165 153.5a.76.76 0 0 0-.2-.4c-.4-.8-1.3-.6-2-.3-.4.2-1.6 1-1.9 1.3-1.4 1.1-3 1.9-4.6 2.6-.5.2-1.1.4-1.6.2 0-.5.3-1 .5-1.4s.5-.9.6-1.3c.1-.5.1-1-.1-1.4-.1-.2-.4-.4-.7-.3-.1 0-.2.1-.3.2l-1.5 1.5c-.5.5-.8 1-1.1 1.5l-1.3 2.3c-.9 1.6-1.8 3-3.1 4.3-1.5 1.5-9.3 8-10.8 9.2l-11.3-12.8c-5-6-7-7.3-10.1-7.6l1.1 16.1s13.4 11.7 16.3 13.7c3.6 2.7 5 2.3 6.5.8 1.5-1.4 4-4 5.3-5.6l6-7c.5-.6 1-1.1 1.6-1.7.9-1 1.3-1.5 2.5-2.1 1.4-.8 3-.9 4.4-1.5 1.4-.7 2.8-1.6 3.9-2.7.8-.8 1.5-1.7 1.9-2.7.5-1.3.3-2.8.1-4.2 0-.2 0-.5-.1-.7z" class="s"/><path d="M114.5 150.9c2.6.3 4.7.3 7.9 3.7 3.5 3.6 14.5 16.3 14.5 16.3l8.5-6.7s.1 1.6 1.6 3.3 3.4 2.1 3.4 2.1-8.1 10-10.8 12.2c-2.5 2-3.4 1.8-6.1-.1-3.1-2.1-16.8-13.7-16.8-13.7s-7.1-8.5-2.2-17.1z" class="k"/><path d="M136.9 171c-2.6 2.1-3.9 5.5-3.9 5.5s-.4-3.5 3-6.6l.9 1.1z" class="p"/><defs ><path id="B" d="M333.8 242.1l-7.3-3.9s-.6-11.2.3-20.1c1.2-12.5 10.5-27 20.1-23.4 9.6 3.5-4.4 16.2-7.5 26.8-3.2 10.7-5.6 20.6-5.6 20.6z"/><path id="C" d="M337.5 244.4l-3.8-2.2s-1.2-8.8 2.4-18.5c3.5-9.6 12.6-14.8 16.8-13.4 5.1 1.7 5.2 6.6 3.3 9.9-2.2 3.8-15.9 13.4-18.7 24.2z"/><path id="D" d="M27.6 241.9l4.8-2.7s2.3-12.6.6-23.4c-2.4-15.2-12.8-20.5-16.5-18.9-3.8 1.5-4.6 6 2.1 14.8 3.9 5.1 9.1 16.1 9 30.2z"/><path id="E" d="M285.9 274.6c0 10.3-20.3 18.6-45.3 18.6s-45.3-8.3-45.3-18.6 20.3-18.6 45.3-18.6 45.3 8.3 45.3 18.6z"/><path id="F" d="M194.5 258.1c.3-10.9 9.2-19.6 20.1-19.6s19.8 8.7 20.1 19.6v.6.6c-.2 2.8-2.2 5.5-5.9 7.7-7.9 4.5-20.6 4.5-28.5 0-3.7-2.1-5.6-4.9-5.9-7.7v-.6c0-.2 0-.4.1-.6z"/><path id="G" d="M278.6 257.8c-.2-9.2-7.8-16.6-17.1-16.6s-16.8 7.4-17.1 16.6v.5.5c.2 2.4 1.9 4.7 5 6.5 6.7 3.9 17.5 3.9 24.2 0 3.1-1.8 4.8-4.1 5-6.5v-.5-.5z"/><path id="H" d="M295.3 259.8c-.2-6.1-5.2-11-11.3-11s-11.1 4.9-11.3 11v.3.3c.1 1.6 1.2 3.1 3.3 4.3 4.4 2.5 11.6 2.5 16 0 2.1-1.2 3.2-2.7 3.3-4.3v-.3-.3z"/><path id="I" d="M319.3 264.7c-.2-8.3-7-14.9-15.4-14.9-8.3 0-15.1 6.6-15.4 14.9v.4.4c.2 2.1 1.7 4.2 4.5 5.8 6 3.5 15.7 3.5 21.7 0 2.8-1.6 4.3-3.7 4.5-5.8v-.4c.2-.1.2-.2.1-.4z"/><path id="J" d="M259 206.2c0 5.6-2.5 10.6-6.5 14-2.7 2.3-4.4 5.6-4.4 9.1v44c0 1.1-.7 2.2-2.2 3.1-.8.5-1.8.8-2.8 1-1.7.3-3.5.3-5.1 0-1-.2-2-.6-2.8-1-1.5-.8-2.2-2-2.2-3.1v-44.1c0-3.5-1.7-6.7-4.3-9-4-3.4-6.5-8.5-6.5-14.2.1-9.6 7.8-17.7 17.3-18.2 10.7-.5 19.5 7.9 19.5 18.4z"/><path id="K" d="M250.8 206.2c0 3.4-1.7 6.5-4.3 8.3-2.2 1.5-3.4 4.1-3.4 6.8v53c0 1.4-1.1 2.6-2.5 2.6h-.1c-1.4 0-2.5-1.2-2.5-2.6v-53.1c0-2.6-1.2-5.2-3.4-6.7-2.7-1.9-4.4-5.1-4.3-8.6.1-5.3 4.5-9.7 9.8-10 5.9-.1 10.7 4.5 10.7 10.3z"/><path id="L" d="M336.7 267.4c-.1-5.1-4.3-9.1-9.4-9.1s-9.2 4.1-9.4 9.1v.3.3c.1 1.3 1 2.6 2.7 3.6 3.7 2.1 9.6 2.1 13.2 0 1.7-1 2.6-2.3 2.7-3.6v-.3c.2-.2.2-.2.2-.3z"/><path id="M" d="M322.7 275.1c-.2-7-5.9-12.5-12.9-12.5s-12.7 5.6-12.9 12.5v.4.4c.1 1.8 1.4 3.5 3.8 4.9 5 2.9 13.2 2.9 18.2 0 2.4-1.4 3.6-3.1 3.8-4.9v-.4-.4z"/><path id="N" d="M299.8 281.3c-.2-8.6-7.3-15.6-16-15.6s-15.8 6.9-16 15.6v.4.4c.2 2.2 1.7 4.4 4.7 6.1 6.2 3.6 16.4 3.6 22.6 0 2.9-1.7 4.5-3.9 4.7-6.1v-.4-.4z"/><path id="O" d="M242.6 278.2a13.39 13.39 0 0 0-13.4-13 13.39 13.39 0 0 0-13.4 13v.4.4c.2 1.9 1.5 3.7 3.9 5.1 5.2 3 13.7 3 18.9 0 2.4-1.4 3.8-3.2 3.9-5.1v-.4c.1-.1.1-.3.1-.4z"/><path id="P" d="M264.8 281c-.2-6.3-5.4-11.4-11.7-11.4-6.4 0-11.6 5.1-11.7 11.4v.3.3c.1 1.6 1.3 3.2 3.4 4.5 4.6 2.6 12 2.6 16.6 0 2.1-1.2 3.3-2.8 3.4-4.5v-.3-.3z"/><path id="Q" d="M344.6 269.6c-.1-3.1-2.6-5.5-5.7-5.5s-5.6 2.4-5.7 5.5v.2.2c.1.8.6 1.6 1.7 2.2 2.2 1.3 5.8 1.3 8 0 1-.6 1.6-1.4 1.6-2.2v-.2c0-.1.1-.2.1-.2z"/><path id="R" d="M150.5 262.6c.1-5.1 4.3-9.1 9.4-9.1s9.2 4.1 9.4 9.1v.3.3c-.1 1.3-1 2.6-2.7 3.6-3.7 2.1-9.6 2.1-13.2 0-1.7-1-2.6-2.3-2.7-3.6v-.3c-.2-.1-.2-.2-.2-.3z"/><path id="S" d="M170.6 266.2c.2-7.3 6.2-13.2 13.6-13.2s13.4 5.9 13.6 13.2v.4.4c-.2 1.9-1.5 3.7-4 5.2-5.3 3.1-13.9 3.1-19.2 0-2.5-1.4-3.8-3.3-4-5.2v-.4-.4z"/><path id="T" d="M158.6 274.1c.2-7 5.9-12.5 12.9-12.5s12.7 5.6 12.9 12.5v.4.4c-.1 1.8-1.4 3.5-3.8 4.9-5 2.9-13.2 2.9-18.2 0-2.4-1.4-3.6-3.1-3.8-4.9v-.4-.4z"/><path id="U" d="M186 279.8c.2-8.6 7.3-15.6 16-15.6s15.8 6.9 16 15.6v.4.4c-.2 2.2-1.7 4.4-4.7 6.1-6.2 3.6-16.4 3.6-22.6 0-2.9-1.7-4.5-3.9-4.7-6.1v-.4-.4z"/><path id="V" d="M271.7 290.4c-.2-7.9-6.7-14.2-14.6-14.2s-14.4 6.3-14.6 14.2v.4.4c.2 2 1.6 4 4.3 5.6 5.7 3.3 15 3.3 20.7 0 2.7-1.6 4.1-3.5 4.3-5.6v-.4c-.1-.2-.1-.3-.1-.4z"/><path id="W" d="M210.7 292c.2-7.5 6.3-13.5 13.9-13.5 7.5 0 13.7 6 13.9 13.5v.4.4c-.2 1.9-1.5 3.8-4.1 5.3-5.4 3.1-14.2 3.1-19.7 0-2.5-1.5-3.9-3.4-4.1-5.3v-.4c.1-.2.1-.3.1-.4z"/><path id="X" d="M246.8 296.8c-.1-3.1-2.6-5.5-5.7-5.5s-5.6 2.4-5.7 5.5v.2.2c.1.8.6 1.6 1.7 2.2 2.2 1.3 5.8 1.3 8 0 1-.6 1.6-1.4 1.6-2.2v-.2c.1-.1.1-.1.1-.2z"/><path id="Y" d="M142.6 264.8c.1-3.1 2.6-5.5 5.7-5.5s5.6 2.4 5.7 5.5v.2.2c-.1.8-.6 1.6-1.7 2.2-2.2 1.3-5.8 1.3-8 0-1-.6-1.6-1.4-1.6-2.2v-.2c-.1-.1-.1-.2-.1-.2z"/></defs></svg>